<svg xmlns="http://www.w3.org/2000/svg" viewBox="0 0 48 48">
  <rect width="48" height="48" rx="11" fill="#0A0E1A"/>
  <path d="M15 9 L33 9 C35 9 36 10.5 35 12.2 C33 15.8 29.7 19.7 27.3 22.2 C26.3 23.3 26.3 24.7 27.3 25.8 C29.7 28.3 33 32.2 35 35.8 C36 37.5 35 39 33 39 L15 39 C13 39 12 37.5 13 35.8 C15 32.2 18.3 28.3 20.7 25.8 C21.7 24.7 21.7 23.3 20.7 22.2 C18.3 19.7 15 15.8 13 12.2 C12 10.5 13 9 15 9 Z" fill="none" stroke="#4ADEC2" stroke-width="3" stroke-linejoin="round"/>
  <path d="M18 12.5 L30 12.5 C28.7 15.3 26.4 17.9 25 19.3 C24.4 19.9 23.6 19.9 23 19.3 C21.6 17.9 19.3 15.3 18 12.5 Z" fill="#F5C97B"/>
</svg>
